<?xml version="1.0" standalone="no"?><!DOCTYPE svg PUBLIC "-//W3C//DTD SVG 1.1//EN" "http://www.w3.org/Graphics/SVG/1.1/DTD/svg11.dtd"><svg t="1698889604161" class="icon" viewBox="0 0 1024 1024" version="1.1" xmlns="http://www.w3.org/2000/svg" p-id="1399" xmlns:xlink="http://www.w3.org/1999/xlink" width="128" height="128"><path d="M706.602667 113.777778a42.666667 42.666667 0 0 1 34.944 18.176l203.605333 290.417778A42.666667 42.666667 0 0 1 952.888889 446.876444V924.444444a42.666667 42.666667 0 0 1-42.666667 42.666667H71.111111a42.666667 42.666667 0 0 1-42.666667-42.666667V446.094222a42.666667 42.666667 0 0 1 6.542223-22.727111L217.258667 133.717333A42.666667 42.666667 0 0 1 253.368889 113.777778zM56.888889 924.444444a14.222222 14.222222 0 0 0 14.222222 14.222223h839.111111a14.222222 14.222222 0 0 0 14.222222-14.222223V469.333333H652.643556a14.222222 14.222222 0 0 0-13.425778 9.514667C615.04 547.740444 564.579556 583.111111 490.666667 583.111111c-74.524444 0-129.777778-35.768889-163.84-105.770667a14.222222 14.222222 0 0 0-10.979556-7.893333L314.026667 469.333333H56.888889z m649.713778-782.222222H253.368889a14.222222 14.222222 0 0 0-12.046222 6.641778L59.079111 438.528a14.222222 14.222222 0 0 0-1.208889 2.360889h256.170667a42.666667 42.666667 0 0 1 38.371555 24.007111C381.781333 525.255111 427.235556 554.666667 490.666667 554.666667c61.895111 0 101.546667-27.804444 121.713777-85.248a42.666667 42.666667 0 0 1 37.546667-28.444445l2.702222-0.085333h270.492445a14.222222 14.222222 0 0 0-1.251556-2.190222l-203.619555-290.417778a14.222222 14.222222 0 0 0-11.648-6.058667z" fill="#2F2F2F" p-id="1400"></path><path d="M682.666667 220.444444a149.333333 142.222222 90 1 0 284.444444 0 149.333333 142.222222 90 1 0-284.444444 0Z" fill="#7E99FF" p-id="1401"></path><path d="M824.888889 71.111111c78.549333 0 142.222222 66.858667 142.222222 149.333333S903.438222 369.777778 824.888889 369.777778s-142.222222-66.858667-142.222222-149.333334S746.339556 71.111111 824.888889 71.111111z m0 28.444445c-62.520889 0-113.777778 53.816889-113.777778 120.888888s51.256889 120.888889 113.777778 120.888889 113.777778-53.816889 113.777778-120.888889S887.409778 99.555556 824.888889 99.555556z" fill="#2F2F2F" p-id="1402"></path></svg>