<?xml version="1.0" standalone="no"?><!DOCTYPE svg PUBLIC "-//W3C//DTD SVG 1.1//EN" "http://www.w3.org/Graphics/SVG/1.1/DTD/svg11.dtd"><svg t="1698889499842" class="icon" viewBox="0 0 1024 1024" version="1.1" xmlns="http://www.w3.org/2000/svg" p-id="1074" width="128" height="128" xmlns:xlink="http://www.w3.org/1999/xlink"><path d="M839.111111 170.666667a28.444444 28.444444 0 0 1 28.444445 28.444444v725.333333a28.444444 28.444444 0 0 1-28.444445 28.444445H270.222222a28.444444 28.444444 0 0 1-28.444444-28.444445V199.111111a28.444444 28.444444 0 0 1 28.444444-28.444444h568.888889z m0 28.444444H270.222222v725.333333h568.888889V199.111111z" fill="#2F2F2F" p-id="1075"></path><path d="M711.111111 56.888889v28.444444H193.934222a37.546667 37.546667 0 0 0-37.404444 35.214223L156.444444 122.922667V796.444444H128V122.922667a65.991111 65.991111 0 0 1 62.919111-65.962667L193.934222 56.888889H711.111111z" fill="#2F2F2F" p-id="1076"></path><path d="M725.333333 384m-71.111111 0a71.111111 71.111111 0 1 0 142.222222 0 71.111111 71.111111 0 1 0-142.222222 0Z" fill="#7E99FF" p-id="1077"></path><path d="M312.888889 782.222222v-41.528889L523.918222 526.222222l76.231111 161.422222 68.608-68.551111L796.444444 740.693333V782.222222z" fill="#7E99FF" p-id="1078"></path></svg>