<svg width="32" height="32" xmlns="http://www.w3.org/2000/svg">
 <title>编组</title>

 <g>
  <title>background</title>
  <rect x="-1" y="-1" width="34" height="34" id="canvas_background" fill="none"/>
 </g>
 <g>
  <title>Layer 1</title>
  <path stroke-opacity="0.09" stroke="#ffffff" id="svg_1" d="m11.44369,30.62796c-5.4023,-1.57211 -9.2745,-6.56747 -8.3945,-10.82942c0.5549,-2.68748 12.26184,-19.00236 13.28423,-18.513c0.33369,0.15972 3.30315,3.9634 6.59879,8.45263c5.27927,7.19127 5.99207,8.53222 5.99207,11.27253c0,5.55449 -5.73998,10.10425 -12.63201,10.01269c-2.01119,-0.02672 -4.19305,-0.20466 -4.84857,-0.39542l0,0zm5.4125,-2.7937c0.17882,-0.71911 -0.23889,-1.06982 -1.27422,-1.06982c-2.35963,0 -5.63281,-2.31448 -6.36409,-4.50007c-0.78008,-2.33143 -2.84841,-2.60871 -3.15391,-0.42281c-0.58859,4.21145 9.80062,9.98035 10.79223,5.99269l0,0z" stroke-width="1.5" fill="#0f67ff"/>
 </g>
</svg>